<?xml version="1.0" encoding="UTF-8" standalone="no"?>
<!DOCTYPE svg PUBLIC "-//W3C//DTD SVG 1.1//EN"
 "http://www.w3.org/Graphics/SVG/1.1/DTD/svg11.dtd">
<!-- Generated by graphviz version 14.1.1 (20251213.1925)
 -->
<!-- Title: InheritanceTree Pages: 1 -->
<svg width="406pt" height="285pt"
 viewBox="0.00 0.00 406.00 285.00" xmlns="http://www.w3.org/2000/svg" xmlns:xlink="http://www.w3.org/1999/xlink">
<g id="graph0" class="graph" transform="scale(1 1) rotate(0) translate(4 280.5)">
<title>InheritanceTree</title>
<polygon fill="white" stroke="none" points="-4,4 -4,-280.5 402,-280.5 402,4 -4,4"/>
<text xml:space="preserve" text-anchor="middle" x="199" y="-7.2" font-family="Times New Roman,serif" font-size="14.00">simple_watcher &#45; Inheritance Hierarchy</text>
<!-- SIMPLE_WATCHER -->
<g id="node1" class="node">
<title>SIMPLE_WATCHER</title>
<path fill="none" stroke="black" d="M140.88,-60.5C140.88,-60.5 28.88,-60.5 28.88,-60.5 22.88,-60.5 16.88,-54.5 16.88,-48.5 16.88,-48.5 16.88,-36.5 16.88,-36.5 16.88,-30.5 22.88,-24.5 28.88,-24.5 28.88,-24.5 140.88,-24.5 140.88,-24.5 146.88,-24.5 152.88,-30.5 152.88,-36.5 152.88,-36.5 152.88,-48.5 152.88,-48.5 152.88,-54.5 146.88,-60.5 140.88,-60.5"/>
<text xml:space="preserve" text-anchor="middle" x="84.88" y="-37.45" font-family="Times New Roman,serif" font-size="14.00">SIMPLE_WATCHER</text>
</g>
<!-- SIMPLE_WATCH_EVENT -->
<g id="node2" class="node">
<title>SIMPLE_WATCH_EVENT</title>
<path fill="none" stroke="black" d="M157.75,-132.5C157.75,-132.5 12,-132.5 12,-132.5 6,-132.5 0,-126.5 0,-120.5 0,-120.5 0,-108.5 0,-108.5 0,-102.5 6,-96.5 12,-96.5 12,-96.5 157.75,-96.5 157.75,-96.5 163.75,-96.5 169.75,-102.5 169.75,-108.5 169.75,-108.5 169.75,-120.5 169.75,-120.5 169.75,-126.5 163.75,-132.5 157.75,-132.5"/>
<text xml:space="preserve" text-anchor="middle" x="84.88" y="-109.45" font-family="Times New Roman,serif" font-size="14.00">SIMPLE_WATCH_EVENT</text>
</g>
<!-- LIB_TESTS -->
<g id="node3" class="node">
<title>LIB_TESTS</title>
<path fill="none" stroke="black" d="M115,-204.5C115,-204.5 54.75,-204.5 54.75,-204.5 48.75,-204.5 42.75,-198.5 42.75,-192.5 42.75,-192.5 42.75,-180.5 42.75,-180.5 42.75,-174.5 48.75,-168.5 54.75,-168.5 54.75,-168.5 115,-168.5 115,-168.5 121,-168.5 127,-174.5 127,-180.5 127,-180.5 127,-192.5 127,-192.5 127,-198.5 121,-204.5 115,-204.5"/>
<text xml:space="preserve" text-anchor="middle" x="84.88" y="-181.45" font-family="Times New Roman,serif" font-size="14.00">LIB_TESTS</text>
</g>
<!-- TEST_SET_BASE -->
<g id="node4" class="node">
<title>TEST_SET_BASE</title>
<path fill="none" stroke="black" d="M386,-204.5C386,-204.5 289.75,-204.5 289.75,-204.5 283.75,-204.5 277.75,-198.5 277.75,-192.5 277.75,-192.5 277.75,-180.5 277.75,-180.5 277.75,-174.5 283.75,-168.5 289.75,-168.5 289.75,-168.5 386,-168.5 386,-168.5 392,-168.5 398,-174.5 398,-180.5 398,-180.5 398,-192.5 398,-192.5 398,-198.5 392,-204.5 386,-204.5"/>
<text xml:space="preserve" text-anchor="middle" x="337.88" y="-181.45" font-family="Times New Roman,serif" font-size="14.00">TEST_SET_BASE</text>
</g>
<!-- LIB_TESTS&#45;&gt;TEST_SET_BASE -->
<g id="edge1" class="edge">
<title>LIB_TESTS&#45;&gt;TEST_SET_BASE</title>
<path fill="none" stroke="black" d="M127.22,-186.5C127.22,-186.5 265.86,-186.5 265.86,-186.5"/>
<polygon fill="none" stroke="black" points="265.86,-190 275.86,-186.5 265.86,-183 265.86,-190"/>
</g>
<!-- TEST_APP -->
<g id="node5" class="node">
<title>TEST_APP</title>
<path fill="none" stroke="black" d="M112.75,-276.5C112.75,-276.5 57,-276.5 57,-276.5 51,-276.5 45,-270.5 45,-264.5 45,-264.5 45,-252.5 45,-252.5 45,-246.5 51,-240.5 57,-240.5 57,-240.5 112.75,-240.5 112.75,-240.5 118.75,-240.5 124.75,-246.5 124.75,-252.5 124.75,-252.5 124.75,-264.5 124.75,-264.5 124.75,-270.5 118.75,-276.5 112.75,-276.5"/>
<text xml:space="preserve" text-anchor="middle" x="84.88" y="-253.45" font-family="Times New Roman,serif" font-size="14.00">TEST_APP</text>
</g>
</g>
</svg>
