<?xml version="1.0" encoding="UTF-8" standalone="no"?>
<!DOCTYPE svg PUBLIC "-//W3C//DTD SVG 1.1//EN"
 "http://www.w3.org/Graphics/SVG/1.1/DTD/svg11.dtd">
<!-- Generated by graphviz version 14.1.1 (20251213.1925)
 -->
<!-- Title: ContractCoverage Pages: 1 -->
<svg width="816pt" height="779pt"
 viewBox="48.00 48.00 768.00 731.00" xmlns="http://www.w3.org/2000/svg" xmlns:xlink="http://www.w3.org/1999/xlink">
<g id="graph0" class="graph" transform="scale(0.729853 0.729853) rotate(0) translate(69.77 996.89)">
<title>ContractCoverage</title>
<polygon fill="white" stroke="none" points="-4,4 -4,-931.12 982.5,-931.12 982.5,4 -4,4"/>
<text xml:space="preserve" text-anchor="middle" x="489.25" y="-913.62" font-family="Times New Roman,serif" font-size="10.00">simple_watcher &#45; Contract Coverage</text>
<g id="clust1" class="cluster">
<title>cluster_SIMPLE_WATCHER</title>
<polygon fill="white" stroke="black" points="0,-71.5 0,-660 582.12,-660 582.12,-71.5 0,-71.5"/>
<text xml:space="preserve" text-anchor="middle" x="291.06" y="-642.7" font-family="Times New Roman,serif" font-size="14.00">SIMPLE_WATCHER</text>
</g>
<g id="clust2" class="cluster">
<title>cluster_SIMPLE_WATCH_EVENT</title>
<polygon fill="white" stroke="black" points="647.62,-395.5 647.62,-648 882.5,-648 882.5,-395.5 647.62,-395.5"/>
<text xml:space="preserve" text-anchor="middle" x="765.06" y="-630.7" font-family="Times New Roman,serif" font-size="14.00">SIMPLE_WATCH_EVENT</text>
</g>
<g id="clust3" class="cluster">
<title>cluster_LIB_TESTS</title>
<polygon fill="white" stroke="black" points="647.62,0 647.62,-319.5 978.5,-319.5 978.5,0 647.62,0"/>
<text xml:space="preserve" text-anchor="middle" x="813.06" y="-302.2" font-family="Times New Roman,serif" font-size="14.00">LIB_TESTS</text>
</g>
<g id="clust4" class="cluster">
<title>cluster_TEST_APP</title>
<polygon fill="white" stroke="black" points="504.06,-719.5 504.06,-780 568.06,-780 568.06,-719.5 504.06,-719.5"/>
<text xml:space="preserve" text-anchor="middle" x="536.06" y="-762.7" font-family="Times New Roman,serif" font-size="14.00">TEST_APP</text>
</g>
<g id="clust5" class="cluster">
<title>cluster_legend</title>
<polygon fill="lightyellow" stroke="black" points="647.69,-719.63 647.69,-907.88 860.44,-907.88 860.44,-719.63 647.69,-719.63"/>
<text xml:space="preserve" text-anchor="middle" x="754.06" y="-894.38" font-family="Times New Roman,serif" font-size="10.00">Legend</text>
</g>
<!-- SIMPLE_WATCHER_make -->
<g id="node1" class="node">
<title>SIMPLE_WATCHER_make</title>
<polygon fill="lightgray" stroke="black" points="54,-107.5 0,-107.5 0,-71.5 54,-71.5 54,-107.5"/>
<text xml:space="preserve" text-anchor="middle" x="27" y="-85.63" font-family="Times New Roman,serif" font-size="10.00">make</text>
</g>
<!-- SIMPLE_WATCHER_path_not_empty -->
<g id="node2" class="node">
<title>SIMPLE_WATCHER_path_not_empty</title>
<polygon fill="lightgray" stroke="black" points="226.75,-515.5 143.25,-515.5 143.25,-479.5 226.75,-479.5 226.75,-515.5"/>
<text xml:space="preserve" text-anchor="middle" x="185" y="-493.63" font-family="Times New Roman,serif" font-size="10.00">path_not_empty</text>
</g>
<!-- SIMPLE_WATCHER_a_path -->
<g id="node3" class="node">
<title>SIMPLE_WATCHER_a_path</title>
<polygon fill="lightgray" stroke="black" points="54,-509.5 0,-509.5 0,-473.5 54,-473.5 54,-509.5"/>
<text xml:space="preserve" text-anchor="middle" x="27" y="-487.63" font-family="Times New Roman,serif" font-size="10.00">a_path</text>
</g>
<!-- SIMPLE_WATCHER_is_empty -->
<g id="node4" class="node">
<title>SIMPLE_WATCHER_is_empty</title>
<polygon fill="lightcoral" stroke="black" points="222,-635.5 168,-635.5 168,-599.5 222,-599.5 222,-635.5"/>
<text xml:space="preserve" text-anchor="middle" x="195" y="-613.62" font-family="Times New Roman,serif" font-size="10.00">is_empty</text>
</g>
<!-- SIMPLE_WATCHER_Watch_file_name -->
<g id="node5" class="node">
<title>SIMPLE_WATCHER_Watch_file_name</title>
<polygon fill="lightgray" stroke="black" points="508,-365.5 420,-365.5 420,-329.5 508,-329.5 508,-365.5"/>
<text xml:space="preserve" text-anchor="middle" x="464" y="-343.62" font-family="Times New Roman,serif" font-size="10.00">Watch_file_name</text>
</g>
<!-- SIMPLE_WATCHER_x0001 -->
<g id="node6" class="node">
<title>SIMPLE_WATCHER_x0001</title>
<polygon fill="lightgray" stroke="black" points="378,-635.5 324,-635.5 324,-599.5 378,-599.5 378,-635.5"/>
<text xml:space="preserve" text-anchor="middle" x="351" y="-613.62" font-family="Times New Roman,serif" font-size="10.00">x0001</text>
</g>
<!-- SIMPLE_WATCHER_Watch_dir_name -->
<g id="node7" class="node">
<title>SIMPLE_WATCHER_Watch_dir_name</title>
<polygon fill="lightgray" stroke="black" points="204.87,-227.5 119.12,-227.5 119.12,-191.5 204.87,-191.5 204.87,-227.5"/>
<text xml:space="preserve" text-anchor="middle" x="162" y="-205.63" font-family="Times New Roman,serif" font-size="10.00">Watch_dir_name</text>
</g>
<!-- SIMPLE_WATCHER_x0002 -->
<g id="node8" class="node">
<title>SIMPLE_WATCHER_x0002</title>
<polygon fill="lightgray" stroke="black" points="456,-635.5 402,-635.5 402,-599.5 456,-599.5 456,-635.5"/>
<text xml:space="preserve" text-anchor="middle" x="429" y="-613.62" font-family="Times New Roman,serif" font-size="10.00">x0002</text>
</g>
<!-- SIMPLE_WATCHER_Watch_attributes -->
<g id="node9" class="node">
<title>SIMPLE_WATCHER_Watch_attributes</title>
<polygon fill="lightgray" stroke="black" points="336.87,-515.5 251.12,-515.5 251.12,-479.5 336.87,-479.5 336.87,-515.5"/>
<text xml:space="preserve" text-anchor="middle" x="294" y="-493.63" font-family="Times New Roman,serif" font-size="10.00">Watch_attributes</text>
</g>
<!-- SIMPLE_WATCHER_x0004 -->
<g id="node10" class="node">
<title>SIMPLE_WATCHER_x0004</title>
<polygon fill="lightgray" stroke="black" points="582,-485.5 528,-485.5 528,-449.5 582,-449.5 582,-485.5"/>
<text xml:space="preserve" text-anchor="middle" x="555" y="-463.63" font-family="Times New Roman,serif" font-size="10.00">x0004</text>
</g>
<!-- SIMPLE_WATCHER_Watch_size -->
<g id="node11" class="node">
<title>SIMPLE_WATCHER_Watch_size</title>
<polygon fill="lightgray" stroke="black" points="314.62,-575.5 251.37,-575.5 251.37,-539.5 314.62,-539.5 314.62,-575.5"/>
<text xml:space="preserve" text-anchor="middle" x="283" y="-553.62" font-family="Times New Roman,serif" font-size="10.00">Watch_size</text>
</g>
<!-- SIMPLE_WATCHER_x0008 -->
<g id="node12" class="node">
<title>SIMPLE_WATCHER_x0008</title>
<polygon fill="lightgray" stroke="black" points="60,-335.5 6,-335.5 6,-299.5 60,-299.5 60,-335.5"/>
<text xml:space="preserve" text-anchor="middle" x="33" y="-313.63" font-family="Times New Roman,serif" font-size="10.00">x0008</text>
</g>
<!-- SIMPLE_WATCHER_Watch_last_write -->
<g id="node13" class="node">
<title>SIMPLE_WATCHER_Watch_last_write</title>
<polygon fill="lightgray" stroke="black" points="508,-527.5 420,-527.5 420,-491.5 508,-491.5 508,-527.5"/>
<text xml:space="preserve" text-anchor="middle" x="464" y="-505.63" font-family="Times New Roman,serif" font-size="10.00">Watch_last_write</text>
</g>
<!-- SIMPLE_WATCHER_x0010 -->
<g id="node14" class="node">
<title>SIMPLE_WATCHER_x0010</title>
<polygon fill="lightgray" stroke="black" points="144,-629.5 90,-629.5 90,-593.5 144,-593.5 144,-629.5"/>
<text xml:space="preserve" text-anchor="middle" x="117" y="-607.63" font-family="Times New Roman,serif" font-size="10.00">x0010</text>
</g>
<!-- SIMPLE_WATCHER_Watch_security -->
<g id="node15" class="node">
<title>SIMPLE_WATCHER_Watch_security</title>
<polygon fill="lightgray" stroke="black" points="528.87,-287.5 449.12,-287.5 449.12,-251.5 528.87,-251.5 528.87,-287.5"/>
<text xml:space="preserve" text-anchor="middle" x="489" y="-265.62" font-family="Times New Roman,serif" font-size="10.00">Watch_security</text>
</g>
<!-- SIMPLE_WATCHER_x0020 -->
<g id="node16" class="node">
<title>SIMPLE_WATCHER_x0020</title>
<polygon fill="lightgray" stroke="black" points="396,-107.5 342,-107.5 342,-71.5 396,-71.5 396,-107.5"/>
<text xml:space="preserve" text-anchor="middle" x="369" y="-85.63" font-family="Times New Roman,serif" font-size="10.00">x0020</text>
</g>
<!-- SIMPLE_WATCHER_Watch_all -->
<g id="node17" class="node">
<title>SIMPLE_WATCHER_Watch_all</title>
<polygon fill="lightgray" stroke="black" points="556,-107.5 498,-107.5 498,-71.5 556,-71.5 556,-107.5"/>
<text xml:space="preserve" text-anchor="middle" x="527" y="-85.63" font-family="Times New Roman,serif" font-size="10.00">Watch_all</text>
</g>
<!-- SIMPLE_WATCHER_x003F -->
<g id="node18" class="node">
<title>SIMPLE_WATCHER_x003F</title>
<polygon fill="lightgray" stroke="black" points="300,-635.5 246,-635.5 246,-599.5 300,-599.5 300,-635.5"/>
<text xml:space="preserve" text-anchor="middle" x="273" y="-613.62" font-family="Times New Roman,serif" font-size="10.00">x003F</text>
</g>
<!-- SIMPLE_WATCHER_Event_file_added -->
<g id="node19" class="node">
<title>SIMPLE_WATCHER_Event_file_added</title>
<polygon fill="lightgray" stroke="black" points="448.37,-467.5 359.62,-467.5 359.62,-431.5 448.37,-431.5 448.37,-467.5"/>
<text xml:space="preserve" text-anchor="middle" x="404" y="-445.63" font-family="Times New Roman,serif" font-size="10.00">Event_file_added</text>
</g>
<!-- SIMPLE_WATCHER_Event_file_removed -->
<g id="node20" class="node">
<title>SIMPLE_WATCHER_Event_file_removed</title>
<polygon fill="lightgray" stroke="black" points="278.62,-287.5 179.37,-287.5 179.37,-251.5 278.62,-251.5 278.62,-287.5"/>
<text xml:space="preserve" text-anchor="middle" x="229" y="-265.62" font-family="Times New Roman,serif" font-size="10.00">Event_file_removed</text>
</g>
<!-- SIMPLE_WATCHER_Event_file_modified -->
<g id="node21" class="node">
<title>SIMPLE_WATCHER_Event_file_modified</title>
<polygon fill="lightgray" stroke="black" points="310.37,-347.5 209.62,-347.5 209.62,-311.5 310.37,-311.5 310.37,-347.5"/>
<text xml:space="preserve" text-anchor="middle" x="260" y="-325.62" font-family="Times New Roman,serif" font-size="10.00">Event_file_modified</text>
</g>
<!-- SIMPLE_WATCHER_Event_file_renamed -->
<g id="node22" class="node">
<title>SIMPLE_WATCHER_Event_file_renamed</title>
<polygon fill="lightgray" stroke="black" points="428.25,-305.5 329.75,-305.5 329.75,-269.5 428.25,-269.5 428.25,-305.5"/>
<text xml:space="preserve" text-anchor="middle" x="379" y="-283.62" font-family="Times New Roman,serif" font-size="10.00">Event_file_renamed</text>
</g>
<!-- SIMPLE_WATCHER_is_valid -->
<g id="node23" class="node">
<title>SIMPLE_WATCHER_is_valid</title>
<polygon fill="lightcoral" stroke="black" points="474,-107.5 420,-107.5 420,-71.5 474,-71.5 474,-107.5"/>
<text xml:space="preserve" text-anchor="middle" x="447" y="-85.63" font-family="Times New Roman,serif" font-size="10.00">is_valid</text>
</g>
<!-- SIMPLE_WATCHER_is_watching -->
<g id="node24" class="node">
<title>SIMPLE_WATCHER_is_watching</title>
<polygon fill="lightcoral" stroke="black" points="522.12,-167.5 455.87,-167.5 455.87,-131.5 522.12,-131.5 522.12,-167.5"/>
<text xml:space="preserve" text-anchor="middle" x="489" y="-145.63" font-family="Times New Roman,serif" font-size="10.00">is_watching</text>
</g>
<!-- SIMPLE_WATCHER_watch_path -->
<g id="node25" class="node">
<title>SIMPLE_WATCHER_watch_path</title>
<polygon fill="lightcoral" stroke="black" points="232,-575.5 168,-575.5 168,-539.5 232,-539.5 232,-575.5"/>
<text xml:space="preserve" text-anchor="middle" x="200" y="-553.62" font-family="Times New Roman,serif" font-size="10.00">watch_path</text>
</g>
<!-- SIMPLE_WATCHER_last_error -->
<g id="node26" class="node">
<title>SIMPLE_WATCHER_last_error</title>
<polygon fill="lightcoral" stroke="black" points="78.12,-395.5 23.87,-395.5 23.87,-359.5 78.12,-359.5 78.12,-395.5"/>
<text xml:space="preserve" text-anchor="middle" x="51" y="-373.63" font-family="Times New Roman,serif" font-size="10.00">last_error</text>
</g>
<!-- SIMPLE_WATCHER_start -->
<g id="node27" class="node">
<title>SIMPLE_WATCHER_start</title>
<polygon fill="khaki" stroke="black" points="198,-167.5 144,-167.5 144,-131.5 198,-131.5 198,-167.5"/>
<text xml:space="preserve" text-anchor="middle" x="171" y="-145.63" font-family="Times New Roman,serif" font-size="10.00">start</text>
</g>
<!-- SIMPLE_WATCHER_poll -->
<g id="node28" class="node">
<title>SIMPLE_WATCHER_poll</title>
<polygon fill="lightgray" stroke="black" points="534,-587.5 480,-587.5 480,-551.5 534,-551.5 534,-587.5"/>
<text xml:space="preserve" text-anchor="middle" x="507" y="-565.63" font-family="Times New Roman,serif" font-size="10.00">poll</text>
</g>
<!-- SIMPLE_WATCHER_valid -->
<g id="node29" class="node">
<title>SIMPLE_WATCHER_valid</title>
<polygon fill="lightgray" stroke="black" points="96,-275.5 42,-275.5 42,-239.5 96,-239.5 96,-275.5"/>
<text xml:space="preserve" text-anchor="middle" x="69" y="-253.62" font-family="Times New Roman,serif" font-size="10.00">valid</text>
</g>
<!-- SIMPLE_WATCHER_watching -->
<g id="node30" class="node">
<title>SIMPLE_WATCHER_watching</title>
<polygon fill="lightcoral" stroke="black" points="582.12,-347.5 527.88,-347.5 527.88,-311.5 582.12,-311.5 582.12,-347.5"/>
<text xml:space="preserve" text-anchor="middle" x="555" y="-325.62" font-family="Times New Roman,serif" font-size="10.00">watching</text>
</g>
<!-- SIMPLE_WATCHER_wait -->
<g id="node31" class="node">
<title>SIMPLE_WATCHER_wait</title>
<polygon fill="lightgray" stroke="black" points="318,-125.5 264,-125.5 264,-89.5 318,-89.5 318,-125.5"/>
<text xml:space="preserve" text-anchor="middle" x="291" y="-103.63" font-family="Times New Roman,serif" font-size="10.00">wait</text>
</g>
<!-- SIMPLE_WATCHER_close -->
<g id="node32" class="node">
<title>SIMPLE_WATCHER_close</title>
<polygon fill="khaki" stroke="black" points="576,-227.5 522,-227.5 522,-191.5 576,-191.5 576,-227.5"/>
<text xml:space="preserve" text-anchor="middle" x="549" y="-205.63" font-family="Times New Roman,serif" font-size="10.00">close</text>
</g>
<!-- SIMPLE_WATCHER_last_start_succeeded -->
<g id="node33" class="node">
<title>SIMPLE_WATCHER_last_start_succeeded</title>
<polygon fill="lightgray" stroke="black" points="280,-455.5 180,-455.5 180,-419.5 280,-419.5 280,-455.5"/>
<text xml:space="preserve" text-anchor="middle" x="230" y="-433.63" font-family="Times New Roman,serif" font-size="10.00">last_start_succeeded</text>
</g>
<!-- SIMPLE_WATCHER_handle -->
<g id="node34" class="node">
<title>SIMPLE_WATCHER_handle</title>
<polygon fill="lightgray" stroke="black" points="66,-629.5 12,-629.5 12,-593.5 66,-593.5 66,-629.5"/>
<text xml:space="preserve" text-anchor="middle" x="39" y="-607.63" font-family="Times New Roman,serif" font-size="10.00">handle</text>
</g>
<!-- SIMPLE_WATCHER_event_from_pointer -->
<g id="node35" class="node">
<title>SIMPLE_WATCHER_event_from_pointer</title>
<polygon fill="lightcoral" stroke="black" points="396.5,-407.5 299.5,-407.5 299.5,-371.5 396.5,-371.5 396.5,-407.5"/>
<text xml:space="preserve" text-anchor="middle" x="348" y="-385.63" font-family="Times New Roman,serif" font-size="10.00">event_from_pointer</text>
</g>
<!-- SIMPLE_WATCHER_c_sw_create -->
<g id="node36" class="node">
<title>SIMPLE_WATCHER_c_sw_create</title>
<polygon fill="lightcoral" stroke="black" points="432.12,-167.5 365.87,-167.5 365.87,-131.5 432.12,-131.5 432.12,-167.5"/>
<text xml:space="preserve" text-anchor="middle" x="399" y="-145.63" font-family="Times New Roman,serif" font-size="10.00">c_sw_create</text>
</g>
<!-- SIMPLE_WATCHER_c_sw_start -->
<g id="node37" class="node">
<title>SIMPLE_WATCHER_c_sw_start</title>
<polygon fill="lightcoral" stroke="black" points="394.75,-575.5 335.25,-575.5 335.25,-539.5 394.75,-539.5 394.75,-575.5"/>
<text xml:space="preserve" text-anchor="middle" x="365" y="-553.62" font-family="Times New Roman,serif" font-size="10.00">c_sw_start</text>
</g>
<!-- SIMPLE_WATCHER_c_sw_poll -->
<g id="node38" class="node">
<title>SIMPLE_WATCHER_c_sw_poll</title>
<polygon fill="lightcoral" stroke="black" points="124.37,-569.5 65.62,-569.5 65.62,-533.5 124.37,-533.5 124.37,-569.5"/>
<text xml:space="preserve" text-anchor="middle" x="95" y="-547.63" font-family="Times New Roman,serif" font-size="10.00">c_sw_poll</text>
</g>
<!-- SIMPLE_WATCHER_c_sw_wait -->
<g id="node39" class="node">
<title>SIMPLE_WATCHER_c_sw_wait</title>
<polygon fill="lightcoral" stroke="black" points="120.12,-167.5 59.87,-167.5 59.87,-131.5 120.12,-131.5 120.12,-167.5"/>
<text xml:space="preserve" text-anchor="middle" x="90" y="-145.63" font-family="Times New Roman,serif" font-size="10.00">c_sw_wait</text>
</g>
<!-- SIMPLE_WATCHER_c_sw_is_watching -->
<g id="node40" class="node">
<title>SIMPLE_WATCHER_c_sw_is_watching</title>
<polygon fill="lightcoral" stroke="black" points="500.25,-227.5 407.75,-227.5 407.75,-191.5 500.25,-191.5 500.25,-227.5"/>
<text xml:space="preserve" text-anchor="middle" x="454" y="-205.63" font-family="Times New Roman,serif" font-size="10.00">c_sw_is_watching</text>
</g>
<!-- SIMPLE_WATCHER_c_sw_get_path -->
<g id="node41" class="node">
<title>SIMPLE_WATCHER_c_sw_get_path</title>
<polygon fill="lightcoral" stroke="black" points="342.12,-185.5 263.87,-185.5 263.87,-149.5 342.12,-149.5 342.12,-185.5"/>
<text xml:space="preserve" text-anchor="middle" x="303" y="-163.63" font-family="Times New Roman,serif" font-size="10.00">c_sw_get_path</text>
</g>
<!-- SIMPLE_WATCHER_c_sw_get_error -->
<g id="node42" class="node">
<title>SIMPLE_WATCHER_c_sw_get_error</title>
<polygon fill="lightcoral" stroke="black" points="156.5,-455.5 77.5,-455.5 77.5,-419.5 156.5,-419.5 156.5,-455.5"/>
<text xml:space="preserve" text-anchor="middle" x="117" y="-433.63" font-family="Times New Roman,serif" font-size="10.00">c_sw_get_error</text>
</g>
<!-- SIMPLE_WATCHER_c_sw_close -->
<g id="node43" class="node">
<title>SIMPLE_WATCHER_c_sw_close</title>
<polygon fill="lightcoral" stroke="black" points="530.62,-425.5 467.37,-425.5 467.37,-389.5 530.62,-389.5 530.62,-425.5"/>
<text xml:space="preserve" text-anchor="middle" x="499" y="-403.63" font-family="Times New Roman,serif" font-size="10.00">c_sw_close</text>
</g>
<!-- SIMPLE_WATCHER_c_sw_free_event -->
<g id="node44" class="node">
<title>SIMPLE_WATCHER_c_sw_free_event</title>
<polygon fill="lightcoral" stroke="black" points="186.5,-395.5 101.5,-395.5 101.5,-359.5 186.5,-359.5 186.5,-395.5"/>
<text xml:space="preserve" text-anchor="middle" x="144" y="-373.63" font-family="Times New Roman,serif" font-size="10.00">c_sw_free_event</text>
</g>
<!-- SIMPLE_WATCHER_c_event_type -->
<g id="node45" class="node">
<title>SIMPLE_WATCHER_c_event_type</title>
<polygon fill="lightcoral" stroke="black" points="154.75,-335.5 83.25,-335.5 83.25,-299.5 154.75,-299.5 154.75,-335.5"/>
<text xml:space="preserve" text-anchor="middle" x="119" y="-313.63" font-family="Times New Roman,serif" font-size="10.00">c_event_type</text>
</g>
<!-- SIMPLE_WATCHER_c_event_filename -->
<g id="node46" class="node">
<title>SIMPLE_WATCHER_c_event_filename</title>
<polygon fill="lightcoral" stroke="black" points="388.37,-245.5 299.62,-245.5 299.62,-209.5 388.37,-209.5 388.37,-245.5"/>
<text xml:space="preserve" text-anchor="middle" x="344" y="-223.63" font-family="Times New Roman,serif" font-size="10.00">c_event_filename</text>
</g>
<!-- SIMPLE_WATCH_EVENT_make -->
<g id="node47" class="node">
<title>SIMPLE_WATCH_EVENT_make</title>
<polygon fill="lightcoral" stroke="black" points="726.5,-623.5 672.5,-623.5 672.5,-587.5 726.5,-587.5 726.5,-623.5"/>
<text xml:space="preserve" text-anchor="middle" x="699.5" y="-601.62" font-family="Times New Roman,serif" font-size="10.00">make</text>
</g>
<!-- SIMPLE_WATCH_EVENT_event_type -->
<g id="node48" class="node">
<title>SIMPLE_WATCH_EVENT_event_type</title>
<polygon fill="lightgray" stroke="black" points="709.38,-431.5 647.62,-431.5 647.62,-395.5 709.38,-395.5 709.38,-431.5"/>
<text xml:space="preserve" text-anchor="middle" x="678.5" y="-409.62" font-family="Times New Roman,serif" font-size="10.00">event_type</text>
</g>
<!-- SIMPLE_WATCH_EVENT_filename -->
<g id="node49" class="node">
<title>SIMPLE_WATCH_EVENT_filename</title>
<polygon fill="lightgray" stroke="black" points="804.5,-623.5 750.5,-623.5 750.5,-587.5 804.5,-587.5 804.5,-623.5"/>
<text xml:space="preserve" text-anchor="middle" x="777.5" y="-601.62" font-family="Times New Roman,serif" font-size="10.00">filename</text>
</g>
<!-- SIMPLE_WATCH_EVENT_is_added -->
<g id="node50" class="node">
<title>SIMPLE_WATCH_EVENT_is_added</title>
<polygon fill="lightcoral" stroke="black" points="882.5,-611.5 828.5,-611.5 828.5,-575.5 882.5,-575.5 882.5,-611.5"/>
<text xml:space="preserve" text-anchor="middle" x="855.5" y="-589.62" font-family="Times New Roman,serif" font-size="10.00">is_added</text>
</g>
<!-- SIMPLE_WATCH_EVENT_is_removed -->
<g id="node51" class="node">
<title>SIMPLE_WATCH_EVENT_is_removed</title>
<polygon fill="lightcoral" stroke="black" points="861.12,-449.5 797.87,-449.5 797.87,-413.5 861.12,-413.5 861.12,-449.5"/>
<text xml:space="preserve" text-anchor="middle" x="829.5" y="-427.62" font-family="Times New Roman,serif" font-size="10.00">is_removed</text>
</g>
<!-- SIMPLE_WATCH_EVENT_is_modified -->
<g id="node52" class="node">
<title>SIMPLE_WATCH_EVENT_is_modified</title>
<polygon fill="lightcoral" stroke="black" points="832.88,-551.5 768.12,-551.5 768.12,-515.5 832.88,-515.5 832.88,-551.5"/>
<text xml:space="preserve" text-anchor="middle" x="800.5" y="-529.62" font-family="Times New Roman,serif" font-size="10.00">is_modified</text>
</g>
<!-- SIMPLE_WATCH_EVENT_is_renamed -->
<g id="node53" class="node">
<title>SIMPLE_WATCH_EVENT_is_renamed</title>
<polygon fill="lightcoral" stroke="black" points="746.75,-563.5 684.25,-563.5 684.25,-527.5 746.75,-527.5 746.75,-563.5"/>
<text xml:space="preserve" text-anchor="middle" x="715.5" y="-541.62" font-family="Times New Roman,serif" font-size="10.00">is_renamed</text>
</g>
<!-- SIMPLE_WATCH_EVENT_event_type_string -->
<g id="node54" class="node">
<title>SIMPLE_WATCH_EVENT_event_type_string</title>
<polygon fill="lightcoral" stroke="black" points="774.62,-491.5 684.38,-491.5 684.38,-455.5 774.62,-455.5 774.62,-491.5"/>
<text xml:space="preserve" text-anchor="middle" x="729.5" y="-469.62" font-family="Times New Roman,serif" font-size="10.00">event_type_string</text>
</g>
<!-- LIB_TESTS_on_prepare -->
<g id="node55" class="node">
<title>LIB_TESTS_on_prepare</title>
<polygon fill="lightcoral" stroke="black" points="709.38,-36 647.62,-36 647.62,0 709.38,0 709.38,-36"/>
<text xml:space="preserve" text-anchor="middle" x="678.5" y="-14.12" font-family="Times New Roman,serif" font-size="10.00">on_prepare</text>
</g>
<!-- LIB_TESTS_on_clean -->
<g id="node56" class="node">
<title>LIB_TESTS_on_clean</title>
<polygon fill="lightcoral" stroke="black" points="968.5,-92 914.5,-92 914.5,-56 968.5,-56 968.5,-92"/>
<text xml:space="preserve" text-anchor="middle" x="941.5" y="-70.12" font-family="Times New Roman,serif" font-size="10.00">on_clean</text>
</g>
<!-- LIB_TESTS_test_dir_path -->
<g id="node57" class="node">
<title>LIB_TESTS_test_dir_path</title>
<polygon fill="lightgray" stroke="black" points="725.5,-295 655.5,-295 655.5,-259 725.5,-259 725.5,-295"/>
<text xml:space="preserve" text-anchor="middle" x="690.5" y="-273.12" font-family="Times New Roman,serif" font-size="10.00">test_dir_path</text>
</g>
<!-- LIB_TESTS_Watch_all_flag -->
<g id="node58" class="node">
<title>LIB_TESTS_Watch_all_flag</title>
<polygon fill="lightgray" stroke="black" points="965,-36 886,-36 886,0 965,0 965,-36"/>
<text xml:space="preserve" text-anchor="middle" x="925.5" y="-14.12" font-family="Times New Roman,serif" font-size="10.00">Watch_all_flag</text>
</g>
<!-- LIB_TESTS_x003F -->
<g id="node59" class="node">
<title>LIB_TESTS_x003F</title>
<polygon fill="lightgray" stroke="black" points="702.5,-148 648.5,-148 648.5,-112 702.5,-112 702.5,-148"/>
<text xml:space="preserve" text-anchor="middle" x="675.5" y="-126.12" font-family="Times New Roman,serif" font-size="10.00">x003F</text>
</g>
<!-- LIB_TESTS_test_watcher_creation -->
<g id="node60" class="node">
<title>LIB_TESTS_test_watcher_creation</title>
<polygon fill="lightcoral" stroke="black" points="978.5,-260 872.5,-260 872.5,-224 978.5,-224 978.5,-260"/>
<text xml:space="preserve" text-anchor="middle" x="925.5" y="-238.12" font-family="Times New Roman,serif" font-size="10.00">test_watcher_creation</text>
</g>
<!-- LIB_TESTS_test_watcher_start -->
<g id="node61" class="node">
<title>LIB_TESTS_test_watcher_start</title>
<polygon fill="lightcoral" stroke="black" points="801.62,-204 711.38,-204 711.38,-168 801.62,-168 801.62,-204"/>
<text xml:space="preserve" text-anchor="middle" x="756.5" y="-182.12" font-family="Times New Roman,serif" font-size="10.00">test_watcher_start</text>
</g>
<!-- LIB_TESTS_test_watcher_close -->
<g id="node62" class="node">
<title>LIB_TESTS_test_watcher_close</title>
<polygon fill="lightcoral" stroke="black" points="763.5,-92 669.5,-92 669.5,-56 763.5,-56 763.5,-92"/>
<text xml:space="preserve" text-anchor="middle" x="716.5" y="-70.12" font-family="Times New Roman,serif" font-size="10.00">test_watcher_close</text>
</g>
<!-- LIB_TESTS_test_watch_path -->
<g id="node63" class="node">
<title>LIB_TESTS_test_watch_path</title>
<polygon fill="lightcoral" stroke="black" points="864.25,-36 780.75,-36 780.75,0 864.25,0 864.25,-36"/>
<text xml:space="preserve" text-anchor="middle" x="822.5" y="-14.12" font-family="Times New Roman,serif" font-size="10.00">test_watch_path</text>
</g>
<!-- LIB_TESTS_test_poll_no_changes -->
<g id="node64" class="node">
<title>LIB_TESTS_test_poll_no_changes</title>
<polygon fill="lightcoral" stroke="black" points="964.5,-148 858.5,-148 858.5,-112 964.5,-112 964.5,-148"/>
<text xml:space="preserve" text-anchor="middle" x="911.5" y="-126.12" font-family="Times New Roman,serif" font-size="10.00">test_poll_no_changes</text>
</g>
<!-- LIB_TESTS_test_invalid_directory -->
<g id="node65" class="node">
<title>LIB_TESTS_test_invalid_directory</title>
<polygon fill="lightcoral" stroke="black" points="852.88,-260 746.12,-260 746.12,-224 852.88,-224 852.88,-260"/>
<text xml:space="preserve" text-anchor="middle" x="799.5" y="-238.12" font-family="Times New Roman,serif" font-size="10.00">test_invalid_directory</text>
</g>
<!-- LIB_TESTS_test_watch_flag_constants -->
<g id="node66" class="node">
<title>LIB_TESTS_test_watch_flag_constants</title>
<polygon fill="lightcoral" stroke="black" points="940.88,-204 816.12,-204 816.12,-168 940.88,-168 940.88,-204"/>
<text xml:space="preserve" text-anchor="middle" x="878.5" y="-182.12" font-family="Times New Roman,serif" font-size="10.00">test_watch_flag_constants</text>
</g>
<!-- LIB_TESTS_test_event_type_constants -->
<g id="node67" class="node">
<title>LIB_TESTS_test_event_type_constants</title>
<polygon fill="lightcoral" stroke="black" points="842.87,-148 718.12,-148 718.12,-112 842.87,-112 842.87,-148"/>
<text xml:space="preserve" text-anchor="middle" x="780.5" y="-126.12" font-family="Times New Roman,serif" font-size="10.00">test_event_type_constants</text>
</g>
<!-- LIB_TESTS_test_watch_event_class -->
<g id="node68" class="node">
<title>LIB_TESTS_test_watch_event_class</title>
<polygon fill="lightcoral" stroke="black" points="893.88,-92 781.12,-92 781.12,-56 893.88,-56 893.88,-92"/>
<text xml:space="preserve" text-anchor="middle" x="837.5" y="-70.12" font-family="Times New Roman,serif" font-size="10.00">test_watch_event_class</text>
</g>
<!-- TEST_APP_make -->
<g id="node69" class="node">
<title>TEST_APP_make</title>
<polygon fill="lightcoral" stroke="black" points="563.06,-755.5 509.06,-755.5 509.06,-719.5 563.06,-719.5 563.06,-755.5"/>
<text xml:space="preserve" text-anchor="middle" x="536.06" y="-733.62" font-family="Times New Roman,serif" font-size="10.00">make</text>
</g>
<!-- legend_full -->
<g id="node70" class="node">
<title>legend_full</title>
<polygon fill="palegreen" stroke="black" points="849.94,-824.62 735.69,-824.62 735.69,-783.62 849.94,-783.62 849.94,-824.62"/>
<text xml:space="preserve" text-anchor="middle" x="792.81" y="-807.33" font-family="Times New Roman,serif" font-size="14.00">Full Contract</text>
<text xml:space="preserve" text-anchor="middle" x="792.81" y="-790.83" font-family="Times New Roman,serif" font-size="14.00">(require + ensure)</text>
</g>
<!-- legend_partial -->
<g id="node71" class="node">
<title>legend_partial</title>
<polygon fill="khaki" stroke="black" points="860.44,-760.62 743.19,-760.62 743.19,-719.62 860.44,-719.62 860.44,-760.62"/>
<text xml:space="preserve" text-anchor="middle" x="801.81" y="-743.33" font-family="Times New Roman,serif" font-size="14.00">Partial Contract</text>
<text xml:space="preserve" text-anchor="middle" x="801.81" y="-726.83" font-family="Times New Roman,serif" font-size="14.00">(require or ensure)</text>
</g>
<!-- legend_none -->
<g id="node72" class="node">
<title>legend_none</title>
<polygon fill="lightcoral" stroke="black" points="842.19,-883.13 759.44,-883.13 759.44,-847.13 842.19,-847.13 842.19,-883.13"/>
<text xml:space="preserve" text-anchor="middle" x="800.81" y="-860.08" font-family="Times New Roman,serif" font-size="14.00">No Contract</text>
</g>
<!-- legend_attr -->
<g id="node73" class="node">
<title>legend_attr</title>
<polygon fill="lightgray" stroke="black" points="736.19,-888.63 671.44,-888.63 671.44,-847.63 736.19,-847.63 736.19,-888.63"/>
<text xml:space="preserve" text-anchor="middle" x="703.81" y="-871.33" font-family="Times New Roman,serif" font-size="14.00">Attribute</text>
<text xml:space="preserve" text-anchor="middle" x="703.81" y="-854.83" font-family="Times New Roman,serif" font-size="14.00">(n/a)</text>
</g>
<!-- legend_stats -->
<g id="node74" class="node">
<title>legend_stats</title>
<polygon fill="white" stroke="black" points="707.94,-826.63 647.69,-826.63 647.69,-719.63 713.94,-719.63 713.94,-820.63 707.94,-826.63"/>
<polyline fill="none" stroke="black" points="707.94,-826.63 707.94,-820.63"/>
<polyline fill="none" stroke="black" points="713.94,-820.63 707.94,-820.63"/>
<text xml:space="preserve" text-anchor="middle" x="680.81" y="-809.33" font-family="Times New Roman,serif" font-size="14.00">Statistics</text>
<text xml:space="preserve" text-anchor="middle" x="680.81" y="-792.83" font-family="Times New Roman,serif" font-size="14.00">Full: 0</text>
<text xml:space="preserve" text-anchor="middle" x="680.81" y="-776.33" font-family="Times New Roman,serif" font-size="14.00">Partial: 2</text>
<text xml:space="preserve" text-anchor="middle" x="680.81" y="-759.83" font-family="Times New Roman,serif" font-size="14.00">None: 37</text>
<text xml:space="preserve" text-anchor="middle" x="680.81" y="-743.33" font-family="Times New Roman,serif" font-size="14.00">Attr: 32</text>
<text xml:space="preserve" text-anchor="middle" x="680.81" y="-726.83" font-family="Times New Roman,serif" font-size="14.00">Total: 71</text>
</g>
</g>
</svg>
