<?xml version="1.0" encoding="UTF-8" standalone="no"?>
<!DOCTYPE svg PUBLIC "-//W3C//DTD SVG 1.1//EN"
 "http://www.w3.org/Graphics/SVG/1.1/DTD/svg11.dtd">
<!-- Generated by graphviz version 14.1.1 (20251213.1925)
 -->
<!-- Title: Dependencies Pages: 1 -->
<svg width="350pt" height="213pt"
 viewBox="0.00 0.00 350.00 213.00" xmlns="http://www.w3.org/2000/svg" xmlns:xlink="http://www.w3.org/1999/xlink">
<g id="graph0" class="graph" transform="scale(1 1) rotate(0) translate(4 208.5)">
<title>Dependencies</title>
<polygon fill="white" stroke="none" points="-4,4 -4,-208.5 345.75,-208.5 345.75,4 -4,4"/>
<text xml:space="preserve" text-anchor="middle" x="170.88" y="-7.2" font-family="Times New Roman,serif" font-size="14.00">simple_watcher &#45; Dependencies</text>
<!-- simple_watcher -->
<g id="node1" class="node">
<title>simple_watcher</title>
<polygon fill="lightblue" stroke="black" points="102.25,-132.5 0,-132.5 0,-96.5 102.25,-96.5 102.25,-132.5"/>
<text xml:space="preserve" text-anchor="middle" x="51.12" y="-109.45" font-family="Times New Roman,serif" font-size="14.00">simple_watcher</text>
</g>
<!-- simple_testing -->
<g id="node2" class="node">
<title>simple_testing</title>
<polygon fill="lightblue" stroke="black" points="341.75,-204.5 246.25,-204.5 246.25,-168.5 341.75,-168.5 341.75,-204.5"/>
<text xml:space="preserve" text-anchor="middle" x="294" y="-181.45" font-family="Times New Roman,serif" font-size="14.00">simple_testing</text>
</g>
<!-- simple_watcher&#45;&gt;simple_testing -->
<g id="edge1" class="edge">
<title>simple_watcher&#45;&gt;simple_testing</title>
<path fill="none" stroke="black" stroke-dasharray="5,2" d="M102.75,-120.5C163.66,-120.5 256.75,-120.5 256.75,-120.5 256.75,-120.5 256.75,-156.6 256.75,-156.6"/>
<polygon fill="black" stroke="black" points="253.25,-156.6 256.75,-166.6 260.25,-156.6 253.25,-156.6"/>
</g>
<!-- base -->
<g id="node3" class="node">
<title>base</title>
<polygon fill="lightgray" stroke="black" points="321,-132.5 267,-132.5 267,-96.5 321,-96.5 321,-132.5"/>
<text xml:space="preserve" text-anchor="middle" x="294" y="-109.45" font-family="Times New Roman,serif" font-size="14.00">base</text>
</g>
<!-- simple_watcher&#45;&gt;base -->
<g id="edge2" class="edge">
<title>simple_watcher&#45;&gt;base</title>
<path fill="none" stroke="black" stroke-dasharray="5,2" d="M102.63,-108.5C102.63,-108.5 255.16,-108.5 255.16,-108.5"/>
<polygon fill="black" stroke="black" points="255.16,-112 265.16,-108.5 255.16,-105 255.16,-112"/>
</g>
<!-- testing -->
<g id="node4" class="node">
<title>testing</title>
<polygon fill="lightgray" stroke="black" points="321,-60.5 267,-60.5 267,-24.5 321,-24.5 321,-60.5"/>
<text xml:space="preserve" text-anchor="middle" x="294" y="-37.45" font-family="Times New Roman,serif" font-size="14.00">testing</text>
</g>
<!-- simple_watcher&#45;&gt;testing -->
<g id="edge3" class="edge">
<title>simple_watcher&#45;&gt;testing</title>
<path fill="none" stroke="black" stroke-dasharray="5,2" d="M50.75,-96.33C50.75,-75 50.75,-42.5 50.75,-42.5 50.75,-42.5 255.06,-42.5 255.06,-42.5"/>
<polygon fill="black" stroke="black" points="255.06,-46 265.06,-42.5 255.06,-39 255.06,-46"/>
</g>
</g>
</svg>
